<?xml version="1.0" encoding="UTF-8" standalone="no"?>
<!-- Created with Inkscape (http://www.inkscape.org/) -->

<svg
   width="992.1698"
   height="992.1698"
   viewBox="0 0 262.51159 262.51159"
   version="1.1"
   id="svg1"
   inkscape:version="1.3 (0e150ed6c4, 2023-07-21)"
   sodipodi:docname="disk-express-logo.svg"
   xmlns:inkscape="http://www.inkscape.org/namespaces/inkscape"
   xmlns:sodipodi="http://sodipodi.sourceforge.net/DTD/sodipodi-0.dtd"
   xmlns="http://www.w3.org/2000/svg"
   xmlns:svg="http://www.w3.org/2000/svg">
  <sodipodi:namedview
     id="namedview1"
     pagecolor="#ffffff"
     bordercolor="#000000"
     borderopacity="0.25"
     inkscape:showpageshadow="2"
     inkscape:pageopacity="0.0"
     inkscape:pagecheckerboard="0"
     inkscape:deskcolor="#d1d1d1"
     inkscape:document-units="mm"
     inkscape:zoom="0.26362494"
     inkscape:cx="305.35806"
     inkscape:cy="703.65117"
     inkscape:window-width="1920"
     inkscape:window-height="1051"
     inkscape:window-x="-9"
     inkscape:window-y="-9"
     inkscape:window-maximized="1"
     inkscape:current-layer="layer1" />
  <defs
     id="defs1" />
  <g
     inkscape:label="Warstwa 1"
     inkscape:groupmode="layer"
     id="layer1"
     transform="translate(-1.4538688,-1.7478295)">
    <g
       id="g2">
      <g
         id="g1">
        <circle
           style="fill:none;fill-opacity:1;stroke:#0da90b;stroke-width:85.277;stroke-dasharray:none;stroke-opacity:1"
           id="path1"
           cx="132.70967"
           cy="133.00363"
           r="88.617302" />
        <circle
           style="fill:none;fill-opacity:1;stroke:#0edb22;stroke-width:57.377;stroke-dasharray:none;stroke-opacity:1"
           id="circle1"
           cx="132.70967"
           cy="133.00363"
           r="88.617302" />
      </g>
      <rect
         style="fill:#0da90b;fill-opacity:1;stroke:none;stroke-width:1;stroke-dasharray:none;stroke-opacity:1"
         id="rect1"
         width="77.530838"
         height="26.094521"
         x="43.032402"
         y="167.74406"
         ry="0"
         transform="rotate(-46.155632)" />
      <rect
         style="fill:#0da90b;fill-opacity:1;stroke:none;stroke-width:1;stroke-dasharray:none;stroke-opacity:1"
         id="rect1-1"
         width="77.530838"
         height="26.094521"
         x="238.22334"
         y="-3.4118986"
         ry="0"
         transform="rotate(43.844368)" />
    </g>
    <path
       style="fill:#0da90b;fill-opacity:1;stroke:#0da90b;stroke-width:5.06881;stroke-dasharray:none;stroke-opacity:1"
       d="m 771.14554,722.08723 c -37.61849,-36.14461 -72.54956,-69.85028 -77.6246,-74.90148 l -9.22735,-9.18401 6.98387,-10.54266 c 49.40545,-74.581 49.56185,-172.88839 0.39551,-248.59192 -4.07195,-6.26975 -9.53191,-13.998 -12.13326,-17.17387 l -4.72973,-5.77432 8.05014,-8.30747 c 4.42758,-4.56911 37.86068,-39.38798 74.29577,-77.37528 36.4351,-37.9873 66.63255,-69.2435 67.10547,-69.45823 2.17871,-0.98922 27.83841,30.42338 43.06955,52.72574 40.87758,59.85545 65.20964,125.33709 74.24128,199.79574 3.05327,25.17174 3.05649,73.6509 0.007,99.24308 -8.95673,75.15746 -36.22253,146.32388 -79.1284,206.53289 -6.23083,8.7436 -22.09862,28.89953 -22.65845,28.7817 -0.13703,-0.0288 -31.0279,-29.62529 -68.64639,-65.76991 z"
       id="path2"
       transform="scale(0.26458333)" />
  </g>
</svg>
